<svg id="Camada_1" data-name="Camada 1" xmlns="http://www.w3.org/2000/svg" viewBox="0 0 113.82 153.25"><defs><style>.cls-1{font-size:130.3px;fill:none;stroke:#fff;stroke-linecap:round;stroke-linejoin:round;stroke-width:0.75px;stroke-dasharray:5 5;font-family:projeto#1, projeto#1;}.cls-2{fill:#fff;}</style></defs><title>D</title><text class="cls-1" transform="matrix(1, 0, 0, 1, 0.4, 131.05)">d</text><polygon class="cls-2" points="44.55 1.32 44.65 22.65 65.88 1.22 44.55 1.32"/><polygon class="cls-2" points="65.88 1.22 65.98 22.55 87.21 1.12 65.88 1.22"/><polygon class="cls-2" points="22.4 22.55 22.5 43.87 43.73 22.45 22.4 22.55"/><polygon class="cls-2" points="22.48 44.14 22.58 65.47 43.81 44.04 22.48 44.14"/><polygon class="cls-2" points="87.31 22.73 87.41 44.06 108.64 22.63 87.31 22.73"/><polygon class="cls-2" points="87.38 87.62 87.48 108.94 108.71 87.52 87.38 87.62"/><polygon class="cls-2" points="22.34 131.03 43.66 130.94 22.24 109.7 22.34 131.03"/></svg>