<svg id="Camada_1" data-name="Camada 1" xmlns="http://www.w3.org/2000/svg" viewBox="0 0 257.3 127.36"><defs><style>.cls-1{fill:#1d1d1b;}.cls-1,.cls-2,.cls-3,.cls-4{stroke:#fff;}.cls-1,.cls-4{stroke-miterlimit:10;stroke-width:0.43px;}.cls-2{font-size:105.79px;}.cls-2,.cls-3{fill:none;stroke-linejoin:round;stroke-width:0.15px;stroke-dasharray:5 5;font-family:projeto#1, projeto#1;}.cls-3{font-size:105.79px;}.cls-4{fill:#fff;}</style></defs><title>frame2</title><polygon class="cls-1" points="35.2 3.05 35.28 20.75 52.9 2.96 35.2 3.05"/><text class="cls-2" transform="translate(165.1 107.23)">T</text><text class="cls-3" transform="matrix(1, 0, 0, 1, 0.09, 108.85)">d</text><polygon class="cls-4" points="35.2 3.05 35.28 20.75 52.9 2.96 35.2 3.05"/><polygon class="cls-4" points="52.52 2.96 52.6 20.83 70.38 2.88 52.52 2.96"/><text class="cls-2" transform="translate(84.79 105.94)">A</text><polygon class="cls-4" points="17.65 20.65 17.74 38.35 35.35 20.57 17.65 20.65"/><polygon class="cls-4" points="17.65 38.43 17.74 56.13 35.35 38.35 17.65 38.43"/><polygon class="cls-4" points="17.65 56.12 17.74 73.81 35.35 56.03 17.65 56.12"/><polygon class="cls-4" points="17.65 73.81 17.74 91.51 35.35 73.73 17.65 73.81"/><polygon class="cls-4" points="17.66 108.75 35.36 108.73 17.64 91.06 17.66 108.75"/><polygon class="cls-4" points="70.44 73.76 70.41 91.45 88.13 73.78 70.44 73.76"/><polygon class="cls-4" points="70.38 55.88 70.46 73.58 88.08 55.8 70.38 55.88"/><polygon class="cls-4" points="70.53 20.65 70.61 38.73 88.61 20.57 70.53 20.65"/><circle class="cls-4" cx="111.23" cy="79.47" r="8.99"/><circle class="cls-4" cx="111.23" cy="97" r="8.99"/><circle class="cls-4" cx="164.11" cy="97.15" r="8.99"/><circle class="cls-4" cx="164.11" cy="44.03" r="8.99"/><rect class="cls-4" x="520.61" y="104.69" width="17.85" height="17.85" transform="translate(358.04 -519.34) rotate(90)"/><rect class="cls-4" x="502.76" y="104.69" width="17.85" height="17.85" transform="translate(340.19 -501.5) rotate(90)"/><rect class="cls-4" x="502.95" y="192.93" width="17.85" height="17.85" transform="translate(428.62 -413.45) rotate(90)"/></svg>