<svg id="Camada_1" data-name="Camada 1" xmlns="http://www.w3.org/2000/svg" viewBox="0 0 266.71 132.01"><defs><style>.cls-1{fill:#1d1d1b;}.cls-1,.cls-2,.cls-3,.cls-4{stroke:#fff;}.cls-1,.cls-4{stroke-miterlimit:10;stroke-width:0.44px;}.cls-2{font-size:109.66px;}.cls-2,.cls-3{fill:none;stroke-linejoin:round;stroke-width:0.15px;stroke-dasharray:5 5;font-family:projeto#1, projeto#1;}.cls-3{font-size:109.66px;}.cls-4{fill:#fff;}</style></defs><title>frame3</title><polygon class="cls-1" points="36.49 3.16 36.57 21.5 54.83 3.07 36.49 3.16"/><text class="cls-2" transform="translate(171.14 111.15)">T</text><text class="cls-3" transform="matrix(1, 0, 0, 1, 0.1, 112.82)">d</text><polygon class="cls-4" points="36.49 3.16 36.57 21.5 54.83 3.07 36.49 3.16"/><text class="cls-2" transform="translate(87.89 109.81)">A</text><polygon class="cls-4" points="18.3 21.41 18.38 39.75 36.64 21.32 18.3 21.41"/><polygon class="cls-4" points="18.31 112.73 36.65 112.71 18.29 94.39 18.31 112.73"/><polygon class="cls-4" points="73.01 76.45 72.98 94.8 91.36 76.48 73.01 76.45"/><polygon class="cls-4" points="72.95 57.93 73.04 76.27 91.3 57.84 72.95 57.93"/><polygon class="cls-4" points="73.11 21.41 73.2 40.15 91.85 21.32 73.11 21.41"/><circle class="cls-4" cx="115.3" cy="100.55" r="9.32"/><circle class="cls-4" cx="170.11" cy="45.64" r="9.32"/><rect class="cls-4" x="252.54" y="263.7" width="18.5" height="18.5" transform="translate(526.31 -251.23) rotate(90)"/><rect class="cls-4" x="234.24" y="355.16" width="18.5" height="18.5" transform="translate(599.47 -141.46) rotate(90)"/></svg>