<svg id="Camada_1" data-name="Camada 1" xmlns="http://www.w3.org/2000/svg" viewBox="0 0 239.79 109.59"><defs><style>.cls-1{fill:#1d1d1b;}.cls-1,.cls-2{stroke:#fff;stroke-miterlimit:10;stroke-width:0.43px;}.cls-2{fill:#fff;}</style></defs><title>frame1</title><polygon class="cls-1" points="18.05 2.03 18.13 20 36.02 1.95 18.05 2.03"/><polygon class="cls-2" points="18.05 2.03 18.13 20 36.02 1.95 18.05 2.03"/><polygon class="cls-2" points="35.63 1.94 35.71 20.09 53.77 1.86 35.63 1.94"/><polygon class="cls-2" points="0.23 19.91 0.31 37.88 18.2 19.82 0.23 19.91"/><polygon class="cls-2" points="0.23 37.96 0.31 55.93 18.2 37.88 0.23 37.96"/><polygon class="cls-2" points="0.23 55.92 0.31 73.89 18.2 55.84 0.23 55.92"/><polygon class="cls-2" points="0.23 73.89 0.31 91.86 18.2 73.81 0.23 73.89"/><polygon class="cls-2" points="0.24 109.37 18.21 109.36 0.22 91.4 0.24 109.37"/><polygon class="cls-2" points="53.83 73.83 53.8 91.81 71.8 73.86 53.83 73.83"/><polygon class="cls-2" points="53.77 55.69 53.86 73.66 71.74 55.6 53.77 55.69"/><polygon class="cls-2" points="53.92 19.91 54.01 38.26 72.28 19.82 53.92 19.91"/><circle class="cls-2" cx="95.26" cy="79.63" r="9.13"/><circle class="cls-2" cx="95.26" cy="97.44" r="9.13"/><circle class="cls-2" cx="148.95" cy="97.59" r="9.13"/><circle class="cls-2" cx="148.95" cy="43.65" r="9.13"/><rect class="cls-2" x="256.28" y="91.64" width="18.12" height="18.12" transform="translate(331.21 -256.07) rotate(90)"/><rect class="cls-2" x="238.16" y="91.64" width="18.12" height="18.12" transform="translate(313.09 -237.94) rotate(90)"/><rect class="cls-2" x="238.35" y="181.24" width="18.12" height="18.12" transform="translate(402.89 -148.53) rotate(90)"/></svg>